<?xml version="1.0" standalone="no"?>
<!DOCTYPE svg PUBLIC "-//W3C//DTD SVG 20010904//EN"
 "http://www.w3.org/TR/2001/REC-SVG-20010904/DTD/svg10.dtd">
<svg version="1.0" xmlns="http://www.w3.org/2000/svg"
 width="200.000000pt" height="200.000000pt" viewBox="0 0 200.000000 200.000000"
 preserveAspectRatio="xMidYMid meet">

<g transform="translate(0.000000,200.000000) scale(0.100000,-0.100000)"
fill="#000000" stroke="none">
<path d="M0 1000 l0 -1000 1000 0 1000 0 0 1000 0 1000 -1000 0 -1000 0 0
-1000z m1613 405 c11 -5 17 -18 17 -41 0 -33 -1 -34 -27 -27 -16 5 -57 8 -93
7 -87 0 -140 -28 -169 -87 -19 -40 -21 -60 -21 -240 0 -211 6 -242 51 -284 43
-39 171 -57 234 -33 26 10 26 9 23 -27 -3 -38 -3 -38 -58 -46 -75 -11 -185 7
-233 39 -25 17 -47 43 -63 77 -23 50 -24 60 -24 278 l0 227 28 53 c30 58 66
85 141 106 45 13 158 11 194 -2z m-565 -388 l2 -388 -77 3 -78 3 -3 375 c-1
206 0 381 3 388 3 9 25 12 77 10 l73 -3 3 -388z m-481 363 c75 -34 107 -122
84 -233 -10 -49 -10 -62 1 -76 27 -31 40 -76 45 -151 10 -140 -27 -234 -104
-266 -19 -8 -69 -14 -123 -14 -88 0 -90 1 -90 24 0 22 5 24 71 29 111 9 163
51 180 143 18 94 -14 198 -72 233 -24 15 -27 20 -14 25 22 8 45 67 45 114 0
93 -37 129 -145 139 -60 5 -65 8 -65 29 0 23 3 24 73 24 49 0 85 -6 114 -20z
m1023 -66 c37 -15 40 -19 40 -57 0 -39 -1 -40 -19 -23 -23 21 -86 31 -135 22
-59 -11 -66 -37 -66 -238 0 -194 4 -208 67 -234 47 -20 97 -9 128 28 l25 30 0
-50 c0 -64 -14 -75 -100 -80 -52 -3 -78 0 -114 17 -71 31 -76 51 -76 291 0
180 2 205 20 239 15 30 30 43 62 54 57 20 119 21 168 1z m-1052 -14 c31 -19
32 -22 32 -83 0 -40 -6 -70 -15 -84 -18 -26 -72 -43 -132 -43 -39 0 -43 2 -43
25 0 22 5 25 33 25 52 0 78 11 88 38 16 41 -11 70 -71 78 -47 6 -50 8 -50 35
0 29 0 29 63 29 44 0 71 -6 95 -20z m-1 -240 c39 -14 71 -71 79 -142 8 -66 -7
-121 -44 -160 -29 -31 -114 -54 -162 -43 -25 5 -30 12 -30 36 0 26 3 29 30 29
39 0 99 25 116 48 7 9 14 36 14 60 0 61 -38 98 -109 108 -50 6 -51 7 -51 40
l0 34 64 0 c34 0 76 -5 93 -10z m1093 -30 c0 -29 -2 -30 -45 -30 -25 0 -45 -4
-45 -10 0 -5 20 -10 45 -10 43 0 45 -1 45 -30 l0 -30 -65 0 -65 0 0 70 0 70
65 0 65 0 0 -30z"/>
<path d="M960 1020 c0 -207 4 -320 10 -320 6 0 10 113 10 320 0 207 -4 320
-10 320 -6 0 -10 -113 -10 -320z"/>
</g>
</svg>
